<svg xmlns="http://www.w3.org/2000/svg" version="1.1" xmlns:xlink="http://www.w3.org/1999/xlink" xmlns:svgjs="http://svgjs.com/svgjs" width="1440" height="560" preserveAspectRatio="none" viewBox="0 0 1440 560"><g mask="url(&quot;#SvgjsMask1000&quot;)" fill="none"><rect width="1440" height="560" x="0" y="0" fill="#0e2a47"></rect><path d="M 0,120 C 57.6,135.2 172.8,208 288,196 C 403.2,184 460.8,67.4 576,60 C 691.2,52.6 748.8,154.6 864,159 C 979.2,163.4 1036.8,73.4 1152,82 C 1267.2,90.6 1382.4,178 1440,202L1440 560L0 560z" fill="#184a7e"></path><path d="M 0,352 C 96,382 288,512.4 480,502 C 672,491.6 768,292.6 960,300 C 1152,307.4 1344,491.2 1440,539L1440 560L0 560z" fill="#2264ab"></path></g><defs><mask id="SvgjsMask1000"><rect width="1440" height="560" fill="#ffffff"></rect></mask></defs></svg>